<svg width="45" height="45" viewBox="0 0 45 45" fill="none" xmlns="http://www.w3.org/2000/svg">
<path d="M28.125 29.5312C28.125 30.3082 27.4957 30.9375 26.7188 30.9375H18.2812C17.5043 30.9375 16.875 30.3082 16.875 29.5312V25.3125H0V37.9688C0 40.2188 1.96875 42.1875 4.21875 42.1875H40.7812C43.0312 42.1875 45 40.2188 45 37.9688V25.3125H28.125V29.5312ZM40.7812 11.25H33.75V7.03125C33.75 4.78125 31.7812 2.8125 29.5312 2.8125H15.4688C13.2188 2.8125 11.25 4.78125 11.25 7.03125V11.25H4.21875C1.96875 11.25 0 13.2188 0 15.4688V22.5H45V15.4688C45 13.2188 43.0312 11.25 40.7812 11.25ZM28.125 11.25H16.875V8.4375H28.125V11.25Z" fill="#828282"/>
</svg>
