<svg width="30" height="28" viewBox="0 0 30 28" fill="none" xmlns="http://www.w3.org/2000/svg">
<path d="M18.75 18.6875C18.75 19.2055 18.3305 19.625 17.8125 19.625H12.1875C11.6695 19.625 11.25 19.2055 11.25 18.6875V15.875H0V24.3125C0 25.8125 1.3125 27.125 2.8125 27.125H27.1875C28.6875 27.125 30 25.8125 30 24.3125V15.875H18.75V18.6875ZM27.1875 6.5H22.5V3.6875C22.5 2.1875 21.1875 0.875 19.6875 0.875H10.3125C8.8125 0.875 7.5 2.1875 7.5 3.6875V6.5H2.8125C1.3125 6.5 0 7.8125 0 9.3125V14H30V9.3125C30 7.8125 28.6875 6.5 27.1875 6.5ZM18.75 6.5H11.25V4.625H18.75V6.5Z" fill="black"/>
</svg>
