<svg width="50" height="50" viewBox="0 0 50 50" fill="none" xmlns="http://www.w3.org/2000/svg">
<path d="M18.5996 31.6216L17.1819 29.5194C17.0739 29.3559 16.956 29.1927 16.8379 29.0299C16.7674 28.9325 16.6969 28.8352 16.6281 28.7366L15.5089 27.179C15.3964 27.0202 15.2764 26.8624 15.1559 26.7047C15.0813 26.6064 15.0063 26.5085 14.9329 26.4089L14.3517 25.6399C14.0129 25.1878 13.6349 24.7021 13.1638 24.1138L12.9232 23.8103C12.6093 23.4145 12.2848 23.0051 11.9551 22.6115L11.3459 21.8739C11.2124 21.7076 11.0699 21.5413 10.9267 21.3745L10.7242 21.1373L10.103 20.4159C10.103 20.4159 9.86499 20.1427 9.81055 20.0807L12.8229 16.5221C12.9083 16.5837 13.229 16.8165 13.229 16.8165L14.0536 17.421C14.1445 17.489 14.2405 17.5598 14.3365 17.6304C14.5115 17.7591 14.6862 17.8873 14.8546 18.0195L15.6668 18.6413C16.0858 18.9585 16.5012 19.2898 16.9028 19.6102L17.2559 19.8916C17.8462 20.3588 18.3572 20.7754 18.8191 21.1659C18.8191 21.1659 19.776 21.9668 19.863 22.0388C20.0333 22.18 20.204 22.3214 20.3684 22.4691L21.3136 23.3017L21.6891 22.8482C22.0948 22.3579 22.5065 21.8707 22.9237 21.3834C24.5255 19.5133 26.1369 17.7441 27.7131 16.125C29.5238 14.2648 31.2287 12.6565 32.925 11.208C33.3783 10.8198 33.8459 10.4325 34.3157 10.0562L35.0329 9.49066L35.7606 8.94504C35.9191 8.82418 36.082 8.70842 36.2453 8.59244L36.5022 8.4088C36.7426 8.23741 36.9929 8.06359 37.2481 7.89531C37.6048 7.65131 37.9782 7.41558 38.3482 7.18628L40.8829 11.0499C40.6162 11.2687 40.3451 11.4944 40.0787 11.7315C39.8831 11.9005 39.6818 12.0866 39.4837 12.2728L39.3396 12.4052C39.1872 12.5446 39.0358 12.6832 38.8876 12.8337L38.3233 13.386L37.7527 13.9738C37.3751 14.3659 36.999 14.7684 36.6335 15.1718C35.2626 16.6921 33.892 18.3724 32.442 20.3101C31.1654 22.0127 29.9116 23.8089 28.6094 25.8008C27.9987 26.7333 27.3946 27.6856 26.8139 28.6311L25.9549 30.0581L25.5375 30.7736C25.4536 30.9181 25.1995 31.3379 25.0273 31.6216H18.5996V31.6216Z" fill="white"/>
</svg>
