<svg width="25" height="38" viewBox="0 0 25 38" fill="none" xmlns="http://www.w3.org/2000/svg">
<g clip-path="url(#clip0)">
<path d="M17.2386 18.75L24.3459 11.4207C25.218 10.5212 25.218 9.06299 24.3459 8.16284L22.7663 6.53394C21.8942 5.63452 20.4801 5.63452 19.6072 6.53394L12.5 13.8633L5.39276 6.53394C4.5206 5.63452 3.10653 5.63452 2.23366 6.53394L0.654119 8.16284C-0.21804 9.06226 -0.21804 10.5205 0.654119 11.4207L7.76136 18.75L0.654119 26.0793C-0.21804 26.9788 -0.21804 28.437 0.654119 29.3372L2.23366 30.9661C3.10582 31.8655 4.5206 31.8655 5.39276 30.9661L12.5 23.6367L19.6072 30.9661C20.4794 31.8655 21.8942 31.8655 22.7663 30.9661L24.3459 29.3372C25.218 28.4377 25.218 26.9795 24.3459 26.0793L17.2386 18.75Z" fill="#828282"/>
</g>
<defs>
<clipPath id="clip0">
<rect width="25" height="37.5" fill="white"/>
</clipPath>
</defs>
</svg>
