<svg width="20" height="20" viewBox="0 0 20 20" fill="none" xmlns="http://www.w3.org/2000/svg">
<path d="M16.875 12.5H15.625C15.4592 12.5 15.3003 12.5658 15.1831 12.6831C15.0658 12.8003 15 12.9592 15 13.125V17.5H2.5V5H8.125C8.29076 5 8.44973 4.93415 8.56694 4.81694C8.68415 4.69973 8.75 4.54076 8.75 4.375V3.125C8.75 2.95924 8.68415 2.80027 8.56694 2.68306C8.44973 2.56585 8.29076 2.5 8.125 2.5H1.875C1.37772 2.5 0.900805 2.69754 0.549175 3.04917C0.197544 3.40081 0 3.87772 0 4.375L0 18.125C0 18.6223 0.197544 19.0992 0.549175 19.4508C0.900805 19.8025 1.37772 20 1.875 20H15.625C16.1223 20 16.5992 19.8025 16.9508 19.4508C17.3025 19.0992 17.5 18.6223 17.5 18.125V13.125C17.5 12.9592 17.4342 12.8003 17.3169 12.6831C17.1997 12.5658 17.0408 12.5 16.875 12.5ZM19.0625 0H14.0625C13.2277 0 12.8105 1.01211 13.3984 1.60156L14.7941 2.99727L5.27344 12.5145C5.18604 12.6016 5.11669 12.705 5.06937 12.819C5.02206 12.933 4.9977 13.0551 4.9977 13.1785C4.9977 13.3019 5.02206 13.4241 5.06937 13.538C5.11669 13.652 5.18604 13.7555 5.27344 13.8426L6.15898 14.7266C6.24608 14.814 6.34957 14.8833 6.46353 14.9306C6.57748 14.9779 6.69966 15.0023 6.82305 15.0023C6.94643 15.0023 7.06861 14.9779 7.18256 14.9306C7.29652 14.8833 7.40001 14.814 7.48711 14.7266L17.0031 5.20781L18.3984 6.60156C18.9844 7.1875 20 6.77734 20 5.9375V0.9375C20 0.68886 19.9012 0.450403 19.7254 0.274587C19.5496 0.098772 19.3111 0 19.0625 0V0Z" fill="#828282"/>
</svg>
