<svg width="45" height="45" viewBox="0 0 45 45" fill="none" xmlns="http://www.w3.org/2000/svg">
<path d="M42.8379 27.7469L39.0938 25.5848C39.4717 23.5457 39.4717 21.4539 39.0938 19.4149L42.8379 17.2528C43.2686 17.0067 43.462 16.4969 43.3213 16.0223C42.3457 12.8934 40.6846 10.0633 38.5137 7.70785C38.1797 7.34749 37.6348 7.2596 37.2129 7.5057L33.4688 9.66781C31.8956 8.31429 30.085 7.26839 28.125 6.58285V2.26742C28.125 1.77523 27.7823 1.34456 27.2989 1.2391C24.0733 0.518393 20.7686 0.553549 17.7012 1.2391C17.2178 1.34456 16.875 1.77523 16.875 2.26742V6.59164C14.9239 7.28597 13.1133 8.33187 11.5313 9.6766L7.79595 7.51449C7.36528 7.26839 6.82915 7.3475 6.49517 7.71664C4.32427 10.0633 2.66314 12.8934 1.68755 16.0311C1.53814 16.5057 1.74028 17.0155 2.17095 17.2616L5.91509 19.4237C5.53716 21.4627 5.53716 23.5545 5.91509 25.5936L2.17095 27.7557C1.74028 28.0018 1.54692 28.5116 1.68755 28.9862C2.66314 32.1151 4.32427 34.9452 6.49517 37.3006C6.82915 37.661 7.37407 37.7489 7.79595 37.5028L11.5401 35.3407C13.1133 36.6942 14.9239 37.7401 16.8838 38.4256V42.7498C16.8838 43.242 17.2266 43.6727 17.71 43.7782C20.9356 44.4989 24.2403 44.4637 27.3077 43.7782C27.7911 43.6727 28.1338 43.242 28.1338 42.7498V38.4256C30.085 37.7313 31.8956 36.6854 33.4776 35.3407L37.2217 37.5028C37.6524 37.7489 38.1885 37.6698 38.5225 37.3006C40.6934 34.9539 42.3545 32.1239 43.3301 28.9862C43.462 28.5028 43.2686 27.993 42.8379 27.7469ZM22.5 29.5311C18.6241 29.5311 15.4688 26.3758 15.4688 22.4998C15.4688 18.6239 18.6241 15.4686 22.5 15.4686C26.376 15.4686 29.5313 18.6239 29.5313 22.4998C29.5313 26.3758 26.376 29.5311 22.5 29.5311Z" fill="#828282"/>
</svg>
